# xmcd
#
# Track frame offsets: 
#        150
#        21723
#        36056
#        52522
#        65515
#        79670
#        93791
#        119643
#        133643
#        155967
#        175382
#        188418
#        202402
#        226377
#        242158
#        258209
#        275924
#        293771
#        307922
#        319245
#
# Disc length: 4444 seconds
#
# Revision: 0
# Processed by: cddbd v1.5.2PL0 Copyright (c) Steve Scherf et al.
# Submitted via: ExactAudioCopy v0.99pb4
#
DISCID=24115a14
DTITLE=Olivera Katarina - Tajna (Zabavna muzika CD 1)
DYEAR=2008
DGENRE=Other
TTITLE0=Ljubav
TTITLE1=Su-Su
TTITLE2=Pricaj mi o ljubavi
TTITLE3=Suliram
TTITLE4=Budi moj
TTITLE5=Necu tebe
TTITLE6=Sanjam
TTITLE7=Sosana
TTITLE8=Alba
TTITLE9=Treperi jedno vece
TTITLE10=Opa, opa uz buzuki
TTITLE11=U ime ljubavi
TTITLE12=Mahni mi sa neba
TTITLE13=Vatra
TTITLE14=Jer ljubav to je miris belog cveca
TTITLE15=Wakamono Ka Kaeranakatta
TTITLE16=Ja sam samo zena
TTITLE17=Molitva
TTITLE18=Non, Rien De Rien
TTITLE19=Nikad ne zaboravi dane nase ljubavi
EXTD=
EXTT0=
EXTT1=
EXTT2=
EXTT3=
EXTT4=
EXTT5=
EXTT6=
EXTT7=
EXTT8=
EXTT9=
EXTT10=
EXTT11=
EXTT12=
EXTT13=
EXTT14=
EXTT15=
EXTT16=
EXTT17=
EXTT18=
EXTT19=
PLAYORDER=
